<svg width="27" height="27" viewBox="0 0 27 27" fill="none" xmlns="http://www.w3.org/2000/svg">
<path fill-rule="evenodd" clip-rule="evenodd" d="M3.21503 11.7627C4.71451 9.44366 8.01621 5.625 13.5 5.625C18.9838 5.625 22.2855 9.44366 23.785 11.7627C24.2454 12.4748 24.4756 12.8309 24.4537 13.4588C24.4318 14.0868 24.1668 14.44 23.6368 15.1464C21.9047 17.4551 18.2623 21.375 13.5 21.375C8.73768 21.375 5.09534 17.4551 3.36318 15.1464C2.83316 14.44 2.56816 14.0868 2.54626 13.4588C2.52436 12.8309 2.75458 12.4748 3.21503 11.7627ZM13.5 18C15.9853 18 18 15.9853 18 13.5C18 11.0147 15.9853 9 13.5 9C11.0147 9 9 11.0147 9 13.5C9 15.9853 11.0147 18 13.5 18Z" fill="#222222"/>
</svg>
