<svg width="116" height="117" viewBox="0 0 116 117" fill="none" xmlns="http://www.w3.org/2000/svg">
<g clip-path="url(#clip0_2623_11)">
<mask id="mask0_2623_11" style="mask-type:luminance" maskUnits="userSpaceOnUse" x="0" y="0" width="116" height="117">
<path d="M116 0H0V117H116V0Z" fill="white"/>
</mask>
<g mask="url(#mask0_2623_11)">
<path d="M92.4361 103.638H74.3117V42.2483H92.4361V103.638ZM52.5619 71.1371H70.6862V103.638H52.5619V71.1371ZM23.5612 44.0556C23.5612 41.0685 26.0013 38.6393 28.9979 38.6393H43.4969C46.4935 38.6393 48.9336 41.0685 48.9336 44.0556V103.638H23.5584V44.0556H23.5612ZM30.812 27.8039H41.6883V35.0247H30.812V27.8039ZM81.5626 31.4157H92.4361V38.6393H81.5626V31.4157ZM94.2502 27.8039H79.7512C78.7496 27.8039 77.9371 28.6127 77.9371 29.6084V38.6365H72.5004C71.4987 38.6365 70.689 39.4453 70.689 40.441V67.5253H52.5646V44.0528C52.5646 39.6935 49.4456 36.0483 45.3138 35.2088V25.9994C45.3138 25.0037 44.5013 24.1949 43.5024 24.1949H38.0657V11.555C38.0657 10.5593 37.2532 9.75046 36.2516 9.75046C35.2499 9.75046 34.4402 10.5593 34.4402 11.555V24.1949H29.0035C28.0046 24.1949 27.1922 25.0037 27.1922 25.9994V35.2088C23.0603 36.0483 19.9413 39.6935 19.9413 44.0528V105.442C19.9413 106.441 20.7537 107.247 21.7526 107.247H94.253C95.2546 107.247 96.0643 106.441 96.0643 105.442V29.6112C96.0643 28.6155 95.2546 27.8067 94.253 27.8067L94.2502 27.8039Z" fill="black"/>
<path d="M65.2495 74.7489H57.9986C56.997 74.7489 56.1873 75.5549 56.1873 76.5534C56.1873 77.5519 56.9997 78.3579 57.9986 78.3579H65.2495C66.2511 78.3579 67.0608 77.5519 67.0608 76.5534C67.0608 75.5549 66.2511 74.7489 65.2495 74.7489Z" fill="black"/>
<path d="M65.2495 81.9725H57.9986C56.997 81.9725 56.1873 82.7785 56.1873 83.777C56.1873 84.7755 56.9997 85.5815 57.9986 85.5815H65.2495C66.2511 85.5815 67.0608 84.7755 67.0608 83.777C67.0608 82.7785 66.2511 81.9725 65.2495 81.9725Z" fill="black"/>
<path d="M65.2495 89.1933H57.9986C56.997 89.1933 56.1873 89.9994 56.1873 90.9978C56.1873 91.9963 56.9997 92.8023 57.9986 92.8023H65.2495C66.2511 92.8023 67.0608 91.9963 67.0608 90.9978C67.0608 89.9994 66.2511 89.1933 65.2495 89.1933Z" fill="black"/>
<path d="M65.2495 96.4169H57.9986C56.997 96.4169 56.1873 97.223 56.1873 98.2214C56.1873 99.2199 56.9997 100.026 57.9986 100.026H65.2495C66.2511 100.026 67.0608 99.2199 67.0608 98.2214C67.0608 97.223 66.2511 96.4169 65.2495 96.4169Z" fill="black"/>
<path d="M29.0007 45.8601C28.0018 45.8601 27.1894 46.6689 27.1894 47.6646V54.8854C27.1894 55.8811 28.0018 56.6899 29.0007 56.6899C29.9996 56.6899 30.812 55.8811 30.812 54.8854V47.6646C30.812 46.6689 29.9996 45.8601 29.0007 45.8601Z" fill="black"/>
<path d="M36.2488 45.8601C35.2471 45.8601 34.4375 46.6689 34.4375 47.6646V54.8854C34.4375 55.8811 35.2499 56.6899 36.2488 56.6899C37.2477 56.6899 38.0629 55.8811 38.0629 54.8854V47.6646C38.0629 46.6689 37.2505 45.8601 36.2488 45.8601Z" fill="black"/>
<path d="M43.4996 45.8601C42.498 45.8601 41.6883 46.6689 41.6883 47.6646V54.8854C41.6883 55.8811 42.5008 56.6899 43.4996 56.6899C44.4985 56.6899 45.311 55.8811 45.311 54.8854V47.6646C45.311 46.6689 44.4985 45.8601 43.4996 45.8601Z" fill="black"/>
<path d="M36.2488 60.3045C35.2471 60.3045 34.4375 61.1105 34.4375 62.109V69.3298C34.4375 70.3283 35.2499 71.1343 36.2488 71.1343C37.2477 71.1343 38.0629 70.3283 38.0629 69.3298V62.109C38.0629 61.1105 37.2505 60.3045 36.2488 60.3045Z" fill="black"/>
<path d="M29.0007 60.3045C28.0018 60.3045 27.1894 61.1105 27.1894 62.109V69.3298C27.1894 70.3283 28.0018 71.1343 29.0007 71.1343C29.9996 71.1343 30.812 70.3283 30.812 69.3298V62.109C30.812 61.1105 29.9996 60.3045 29.0007 60.3045Z" fill="black"/>
<path d="M43.4996 60.3045C42.498 60.3045 41.6883 61.1105 41.6883 62.109V69.3298C41.6883 70.3283 42.5008 71.1343 43.4996 71.1343C44.4985 71.1343 45.311 70.3283 45.311 69.3298V62.109C45.311 61.1105 44.4985 60.3045 43.4996 60.3045Z" fill="black"/>
<path d="M29.0007 74.7489C28.0018 74.7489 27.1894 75.5549 27.1894 76.5534V83.7742C27.1894 84.7727 28.0018 85.5787 29.0007 85.5787C29.9996 85.5787 30.812 84.7727 30.812 83.7742V76.5534C30.812 75.5549 29.9996 74.7489 29.0007 74.7489Z" fill="black"/>
<path d="M36.2488 74.7489C35.2471 74.7489 34.4375 75.5549 34.4375 76.5534V83.7742C34.4375 84.7727 35.2499 85.5787 36.2488 85.5787C37.2477 85.5787 38.0629 84.7727 38.0629 83.7742V76.5534C38.0629 75.5549 37.2505 74.7489 36.2488 74.7489Z" fill="black"/>
<path d="M43.4996 74.7489C42.498 74.7489 41.6883 75.5549 41.6883 76.5534V83.7742C41.6883 84.7727 42.5008 85.5787 43.4996 85.5787C44.4985 85.5787 45.311 84.7727 45.311 83.7742V76.5534C45.311 75.5549 44.4985 74.7489 43.4996 74.7489Z" fill="black"/>
<path d="M29.0007 89.1933C28.0018 89.1933 27.1894 89.9994 27.1894 90.9978V98.2214C27.1894 99.2199 28.0018 100.026 29.0007 100.026C29.9996 100.026 30.812 99.2199 30.812 98.2214V90.9978C30.812 89.9994 29.9996 89.1933 29.0007 89.1933Z" fill="black"/>
<path d="M36.2488 89.1933C35.2471 89.1933 34.4375 89.9994 34.4375 90.9978V98.2214C34.4375 99.2199 35.2499 100.026 36.2488 100.026C37.2477 100.026 38.0629 99.2199 38.0629 98.2214V90.9978C38.0629 89.9994 37.2505 89.1933 36.2488 89.1933Z" fill="black"/>
<path d="M43.4996 89.1933C42.498 89.1933 41.6883 89.9994 41.6883 90.9978V98.2214C41.6883 99.2199 42.5008 100.026 43.4996 100.026C44.4985 100.026 45.311 99.2199 45.311 98.2214V90.9978C45.311 89.9994 44.4985 89.1933 43.4996 89.1933Z" fill="black"/>
<path d="M77.9371 47.6674V54.8882C77.9371 55.8839 78.7468 56.6927 79.7512 56.6927C80.7557 56.6927 81.5625 55.8839 81.5625 54.8882V47.6674C81.5625 46.6717 80.7529 45.8629 79.7512 45.8629C78.7496 45.8629 77.9371 46.6717 77.9371 47.6674Z" fill="black"/>
<path d="M86.9993 56.6927C88.001 56.6927 88.8106 55.8839 88.8106 54.8882V47.6674C88.8106 46.6717 88.001 45.8629 86.9993 45.8629C85.9977 45.8629 85.188 46.6717 85.188 47.6674V54.8882C85.188 55.8839 85.9977 56.6927 86.9993 56.6927Z" fill="black"/>
<path d="M79.7484 60.3045C78.7468 60.3045 77.9343 61.1105 77.9343 62.109V69.3298C77.9343 70.3283 78.744 71.1343 79.7484 71.1343C80.7529 71.1343 81.5598 70.3283 81.5598 69.3298V62.109C81.5598 61.1105 80.7501 60.3045 79.7484 60.3045Z" fill="black"/>
<path d="M86.9993 71.1371C88.001 71.1371 88.8106 70.3311 88.8106 69.3326V62.1118C88.8106 61.1133 88.001 60.3073 86.9993 60.3073C85.9977 60.3073 85.188 61.1133 85.188 62.1118V69.3326C85.188 70.3311 85.9977 71.1371 86.9993 71.1371Z" fill="black"/>
<path d="M79.7484 74.7489C78.7468 74.7489 77.9343 75.5549 77.9343 76.5534V83.7742C77.9343 84.7727 78.744 85.5787 79.7484 85.5787C80.7529 85.5787 81.5598 84.7727 81.5598 83.7742V76.5534C81.5598 75.5549 80.7501 74.7489 79.7484 74.7489Z" fill="black"/>
<path d="M86.9993 85.5815C88.001 85.5815 88.8106 84.7755 88.8106 83.777V76.5562C88.8106 75.5577 88.001 74.7517 86.9993 74.7517C85.9977 74.7517 85.188 75.5577 85.188 76.5562V83.777C85.188 84.7755 85.9977 85.5815 86.9993 85.5815Z" fill="black"/>
<path d="M79.7484 89.1933C78.7468 89.1933 77.9343 89.9994 77.9343 90.9978V98.2214C77.9343 99.2199 78.744 100.026 79.7484 100.026C80.7529 100.026 81.5598 99.2199 81.5598 98.2214V90.9978C81.5598 89.9994 80.7501 89.1933 79.7484 89.1933Z" fill="black"/>
<path d="M86.9993 100.026C88.001 100.026 88.8106 99.2199 88.8106 98.2214V90.9978C88.8106 89.9994 88.001 89.1933 86.9993 89.1933C85.9977 89.1933 85.188 89.9994 85.188 90.9978V98.2214C85.188 99.2199 85.9977 100.026 86.9993 100.026Z" fill="black"/>
</g>
</g>
<defs>
<clipPath id="clip0_2623_11">
<rect width="116" height="117" fill="white"/>
</clipPath>
</defs>
</svg>
